<svg xmlns="http://www.w3.org/2000/svg" viewBox="0 0 560 360" width="560" height="360"
     style="color:#818059" role="img" aria-label="Fuel with Jess logo">
  <!-- Color follows `color` of the surrounding element (currentColor).
       Default is sage #818059; set color:#ECE5D9 on a dark section to flip it cream. -->
  <defs>
    <style>
      @import url('https://fonts.googleapis.com/css2?family=Allura&amp;family=Montserrat:wght@600&amp;display=swap');
      .script { font-family:'Allura', cursive; }
      .label  { font-family:'Montserrat', sans-serif; font-weight:600; letter-spacing:0.22em; }
    </style>
  </defs>

  <!-- flame mark -->
  <g transform="translate(330,40) scale(0.9)" fill="currentColor">
    <path fill-rule="evenodd" d="M32 3 C37 10 50 20 52 34 C54 44 52 54 46 62 C44 66 44 70 46 74 C46 78 42 80 38 80 L26 80 C22 80 18 78 18 74 C20 70 20 66 18 62 C12 54 10 44 12 34 C14 20 27 10 32 3 Z M32 50 C27 50 23 55 24 61 C25 67 29 70 32 70 C35 70 39 67 40 61 C41 55 37 50 32 50 Z"/>
  </g>

  <text class="script" x="280" y="220" font-size="200" text-anchor="middle" fill="currentColor">Fuel</text>

  <line x1="170" y1="285" x2="215" y2="285" stroke="currentColor" stroke-width="2"/>
  <text class="label" x="280" y="293" font-size="26" text-anchor="middle" fill="currentColor">WITH JESS</text>
  <line x1="345" y1="285" x2="390" y2="285" stroke="currentColor" stroke-width="2"/>
</svg>
